<svg width="44" height="44" viewBox="0 0 44 44" fill="none" xmlns="http://www.w3.org/2000/svg">
<g clip-path="url(#clip0)">
<path d="M25.4775 28.9264C24.4016 28.1757 23.2518 27.5641 22.0494 27.0968C23.6489 25.6429 24.7101 23.6063 24.8947 21.3263C27.3204 18.9626 30.5001 17.6669 33.9087 17.6669C36.5698 17.6669 39.1247 18.4682 41.298 19.9838C42.0768 20.527 43.1477 20.3363 43.6908 19.5575C44.2337 18.779 44.043 17.7078 43.2645 17.165C42.1886 16.4144 41.0385 15.8031 39.8361 15.3355C41.6012 13.7312 42.711 11.4179 42.711 8.85055C42.711 4.01757 38.7793 0.0859299 33.9463 0.0859299C29.1137 0.0859299 25.1821 4.01757 25.1821 8.85055C25.1821 11.4075 26.2828 13.7124 28.0358 15.316C27.7958 15.4083 27.5571 15.506 27.3208 15.6101C26.2452 16.0834 25.2341 16.6655 24.2938 17.349C22.997 14.1273 19.8398 11.8473 16.1596 11.8473C11.327 11.8473 7.395 15.7789 7.395 20.6116C7.395 23.1615 8.48969 25.46 10.2333 27.0629C5.57151 28.8095 1.7916 32.5609 0.252781 37.3452C-0.257474 38.9317 0.0127598 40.6142 0.994327 41.9613C1.9759 43.3081 3.49457 44.0806 5.16096 44.0806H20.1124C21.0614 44.0806 21.8308 43.3112 21.8308 42.3618C21.8308 41.4128 21.0614 40.6434 20.1124 40.6434H5.16096C4.60538 40.6434 4.09916 40.3859 3.77186 39.9368C3.44455 39.4876 3.35459 38.9267 3.52445 38.3976C5.22306 33.1165 10.4035 29.4282 16.122 29.4282C18.7827 29.4282 21.338 30.2295 23.5113 31.7452C24.2898 32.2883 25.361 32.0973 25.9041 31.3188C26.4469 30.5404 26.2563 29.4692 25.4775 28.9264V28.9264ZM33.9463 3.52309C36.884 3.52309 39.2738 5.9129 39.2738 8.85055C39.2738 11.7879 36.884 14.178 33.9463 14.178C31.009 14.178 28.6189 11.7879 28.6189 8.85055C28.6189 5.9129 31.009 3.52309 33.9463 3.52309ZM16.1596 15.2841C19.0973 15.2841 21.4871 17.6743 21.4871 20.6116C21.4871 23.5492 19.0973 25.939 16.1596 25.939C13.222 25.939 10.8322 23.5492 10.8322 20.6116C10.8322 17.6743 13.222 15.2841 16.1596 15.2841V15.2841ZM44 35.9175C44 36.8665 43.2306 37.6359 42.2813 37.6359H37.5554V42.3618C37.5554 43.3112 36.786 44.0806 35.837 44.0806C34.8876 44.0806 34.1182 43.3112 34.1182 42.3618V37.6359H29.3923C28.4433 37.6359 27.6739 36.8665 27.6739 35.9175C27.6739 34.9682 28.4433 34.1988 29.3923 34.1988H34.1182V29.4729C34.1182 28.5239 34.8876 27.7545 35.837 27.7545C36.786 27.7545 37.5554 28.5239 37.5554 29.4729V34.1988H42.2813C43.2306 34.1988 44 34.9682 44 35.9175V35.9175Z" fill="#272727"/>
</g>
<defs>
<clipPath id="clip0">
<rect width="44" height="44" fill="white"/>
</clipPath>
</defs>
</svg>
