<svg width="44" height="48" viewBox="0 0 44 48" fill="none" xmlns="http://www.w3.org/2000/svg">
<g filter="url(#filter0_d)">
<path d="M16.5 20.1667C20.5501 20.1667 23.8333 16.8834 23.8333 12.8333C23.8333 8.78325 20.5501 5.5 16.5 5.5C12.4499 5.5 9.16666 8.78325 9.16666 12.8333C9.16666 16.8834 12.4499 20.1667 16.5 20.1667Z" stroke="#272727" stroke-width="2.75" stroke-linecap="round" stroke-linejoin="round"/>
<path d="M5.5 38.5V34.8333C5.5 32.8884 6.27262 31.0232 7.64788 29.6479C9.02315 28.2726 10.8884 27.5 12.8333 27.5H20.1667C22.1116 27.5 23.9769 28.2726 25.3521 29.6479C26.7274 31.0232 27.5 32.8884 27.5 34.8333V38.5" stroke="#272727" stroke-width="2.75" stroke-linecap="round" stroke-linejoin="round"/>
<path d="M29.3333 5.73833C30.9108 6.14222 32.3089 7.05962 33.3073 8.3459C34.3058 9.63219 34.8477 11.2142 34.8477 12.8425C34.8477 14.4708 34.3058 16.0528 33.3073 17.3391C32.3089 18.6254 30.9108 19.5428 29.3333 19.9467" stroke="#272727" stroke-width="2.75" stroke-linecap="round" stroke-linejoin="round"/>
<path d="M38.5 38.5V34.8333C38.4907 33.2148 37.9462 31.6448 36.9513 30.3681C35.9565 29.0913 34.5672 28.1796 33 27.775" stroke="#272727" stroke-width="2.75" stroke-linecap="round" stroke-linejoin="round"/>
</g>
<defs>
<filter id="filter0_d" x="-4" y="0" width="52" height="52" filterUnits="userSpaceOnUse" color-interpolation-filters="sRGB">
<feFlood flood-opacity="0" result="BackgroundImageFix"/>
<feColorMatrix in="SourceAlpha" type="matrix" values="0 0 0 0 0 0 0 0 0 0 0 0 0 0 0 0 0 0 127 0"/>
<feOffset dy="4"/>
<feGaussianBlur stdDeviation="2"/>
<feColorMatrix type="matrix" values="0 0 0 0 0 0 0 0 0 0 0 0 0 0 0 0 0 0 0.25 0"/>
<feBlend mode="normal" in2="BackgroundImageFix" result="effect1_dropShadow"/>
<feBlend mode="normal" in="SourceGraphic" in2="effect1_dropShadow" result="shape"/>
</filter>
</defs>
</svg>
