<svg width="44" height="44" viewBox="0 0 44 44" fill="none" xmlns="http://www.w3.org/2000/svg">
<path d="M9.16668 23.8333C10.1792 23.8333 11 23.0125 11 22C11 20.9875 10.1792 20.1667 9.16668 20.1667C8.15415 20.1667 7.33334 20.9875 7.33334 22C7.33334 23.0125 8.15415 23.8333 9.16668 23.8333Z" stroke="#272727" stroke-width="3.66667" stroke-linecap="round" stroke-linejoin="round"/>
<path d="M22 23.8333C23.0125 23.8333 23.8333 23.0125 23.8333 22C23.8333 20.9875 23.0125 20.1667 22 20.1667C20.9875 20.1667 20.1667 20.9875 20.1667 22C20.1667 23.0125 20.9875 23.8333 22 23.8333Z" stroke="#272727" stroke-width="3.66667" stroke-linecap="round" stroke-linejoin="round"/>
<path d="M34.8333 23.8333C35.8459 23.8333 36.6667 23.0125 36.6667 22C36.6667 20.9875 35.8459 20.1667 34.8333 20.1667C33.8208 20.1667 33 20.9875 33 22C33 23.0125 33.8208 23.8333 34.8333 23.8333Z" stroke="#272727" stroke-width="3.66667" stroke-linecap="round" stroke-linejoin="round"/>
</svg>
