<svg width="44" height="44" viewBox="0 0 44 44" fill="none" xmlns="http://www.w3.org/2000/svg">
<path d="M16.5 20.1667C20.5501 20.1667 23.8333 16.8834 23.8333 12.8333C23.8333 8.78325 20.5501 5.5 16.5 5.5C12.4499 5.5 9.16666 8.78325 9.16666 12.8333C9.16666 16.8834 12.4499 20.1667 16.5 20.1667Z" stroke="#272727" stroke-width="3.66667" stroke-linecap="round" stroke-linejoin="round"/>
<path d="M5.5 38.5V34.8333C5.5 32.8884 6.27262 31.0232 7.64788 29.6479C9.02315 28.2726 10.8884 27.5 12.8333 27.5H20.1667C22.1116 27.5 23.9769 28.2726 25.3521 29.6479C26.7274 31.0232 27.5 32.8884 27.5 34.8333V38.5" stroke="#272727" stroke-width="3.66667" stroke-linecap="round" stroke-linejoin="round"/>
<path d="M34.8333 14.6667V25.6667M29.3333 20.1667H40.3333H29.3333Z" stroke="#272727" stroke-width="3.66667" stroke-linecap="round" stroke-linejoin="round"/>
</svg>
