<svg width="44" height="44" viewBox="0 0 44 44" fill="none" xmlns="http://www.w3.org/2000/svg">
<path d="M31.1667 20.1667H12.8333C10.8083 20.1667 9.16666 21.8083 9.16666 23.8333V34.8333C9.16666 36.8584 10.8083 38.5 12.8333 38.5H31.1667C33.1917 38.5 34.8333 36.8584 34.8333 34.8333V23.8333C34.8333 21.8083 33.1917 20.1667 31.1667 20.1667Z" stroke="#272727" stroke-width="3.66667" stroke-linecap="round" stroke-linejoin="round"/>
<path d="M22 31.1667C23.0125 31.1667 23.8333 30.3459 23.8333 29.3333C23.8333 28.3208 23.0125 27.5 22 27.5C20.9875 27.5 20.1667 28.3208 20.1667 29.3333C20.1667 30.3459 20.9875 31.1667 22 31.1667Z" stroke="#272727" stroke-width="3.66667" stroke-linecap="round" stroke-linejoin="round"/>
<path d="M14.6667 20.1667V12.8333C14.6667 10.8884 15.4393 9.02315 16.8145 7.64788C18.1898 6.27262 20.0551 5.5 22 5.5C23.9449 5.5 25.8102 6.27262 27.1854 7.64788C28.5607 9.02315 29.3333 10.8884 29.3333 12.8333V20.1667" stroke="#272727" stroke-width="3.66667" stroke-linecap="round" stroke-linejoin="round"/>
</svg>
