<svg width="44" height="44" viewBox="0 0 44 44" fill="none" xmlns="http://www.w3.org/2000/svg">
<path d="M29.7 7.33333C26.7855 5.80475 23.4816 5.17951 20.2101 5.53745C16.9386 5.89539 13.848 7.22026 11.333 9.34289C8.81806 11.4655 6.99278 14.2896 6.0903 17.4544C5.18782 20.6193 5.24909 23.9813 6.2663 27.1112C7.2835 30.241 9.21047 32.9967 11.8011 35.0263C14.3918 37.0558 17.5286 38.2672 20.811 38.5057C24.0933 38.7442 27.3723 37.999 30.2291 36.3652C33.086 34.7314 35.391 32.2833 36.85 29.3333C35.3147 30.2901 33.5817 30.8848 31.7824 31.0723C29.9832 31.2598 28.1648 31.0352 26.4652 30.4155C24.7656 29.7959 23.2294 28.7974 21.9731 27.4957C20.7168 26.1941 19.7733 24.6236 19.2141 22.9031C18.655 21.1827 18.4949 19.3575 18.7459 17.566C18.997 15.7745 19.6527 14.0636 20.6632 12.5631C21.6737 11.0627 23.0126 9.81196 24.5783 8.90584C26.1441 7.99971 27.8955 7.46195 29.7 7.33333" stroke="#F1EEEE" stroke-width="2.75" stroke-linecap="round" stroke-linejoin="round"/>
</svg>
