<svg width="44" height="47" viewBox="0 0 44 47" fill="none" xmlns="http://www.w3.org/2000/svg">
<g filter="url(#filter0_d)">
<path d="M9.16667 11C10.1792 11 11 10.1792 11 9.16666C11 8.15414 10.1792 7.33333 9.16667 7.33333C8.15415 7.33333 7.33334 8.15414 7.33334 9.16666C7.33334 10.1792 8.15415 11 9.16667 11Z" stroke="#F1EEEE" stroke-width="2.75" stroke-linecap="round" stroke-linejoin="round"/>
<path d="M22 11C23.0125 11 23.8333 10.1792 23.8333 9.16666C23.8333 8.15414 23.0125 7.33333 22 7.33333C20.9875 7.33333 20.1667 8.15414 20.1667 9.16666C20.1667 10.1792 20.9875 11 22 11Z" stroke="#F1EEEE" stroke-width="2.75" stroke-linecap="round" stroke-linejoin="round"/>
<path d="M34.8333 11C35.8459 11 36.6667 10.1792 36.6667 9.16666C36.6667 8.15414 35.8459 7.33333 34.8333 7.33333C33.8208 7.33333 33 8.15414 33 9.16666C33 10.1792 33.8208 11 34.8333 11Z" stroke="#F1EEEE" stroke-width="2.75" stroke-linecap="round" stroke-linejoin="round"/>
<path d="M9.16667 23.8333C10.1792 23.8333 11 23.0125 11 22C11 20.9875 10.1792 20.1667 9.16667 20.1667C8.15415 20.1667 7.33334 20.9875 7.33334 22C7.33334 23.0125 8.15415 23.8333 9.16667 23.8333Z" stroke="#F1EEEE" stroke-width="2.75" stroke-linecap="round" stroke-linejoin="round"/>
<path d="M22 23.8333C23.0125 23.8333 23.8333 23.0125 23.8333 22C23.8333 20.9875 23.0125 20.1667 22 20.1667C20.9875 20.1667 20.1667 20.9875 20.1667 22C20.1667 23.0125 20.9875 23.8333 22 23.8333Z" stroke="#F1EEEE" stroke-width="2.75" stroke-linecap="round" stroke-linejoin="round"/>
<path d="M34.8333 23.8333C35.8459 23.8333 36.6667 23.0125 36.6667 22C36.6667 20.9875 35.8459 20.1667 34.8333 20.1667C33.8208 20.1667 33 20.9875 33 22C33 23.0125 33.8208 23.8333 34.8333 23.8333Z" stroke="#F1EEEE" stroke-width="2.75" stroke-linecap="round" stroke-linejoin="round"/>
<path d="M9.16667 36.6667C10.1792 36.6667 11 35.8459 11 34.8333C11 33.8208 10.1792 33 9.16667 33C8.15415 33 7.33334 33.8208 7.33334 34.8333C7.33334 35.8459 8.15415 36.6667 9.16667 36.6667Z" stroke="#F1EEEE" stroke-width="2.75" stroke-linecap="round" stroke-linejoin="round"/>
<path d="M22 36.6667C23.0125 36.6667 23.8333 35.8459 23.8333 34.8333C23.8333 33.8208 23.0125 33 22 33C20.9875 33 20.1667 33.8208 20.1667 34.8333C20.1667 35.8459 20.9875 36.6667 22 36.6667Z" stroke="#F1EEEE" stroke-width="2.75" stroke-linecap="round" stroke-linejoin="round"/>
<path d="M34.8333 36.6667C35.8459 36.6667 36.6667 35.8459 36.6667 34.8333C36.6667 33.8208 35.8459 33 34.8333 33C33.8208 33 33 33.8208 33 34.8333C33 35.8459 33.8208 36.6667 34.8333 36.6667Z" stroke="#F1EEEE" stroke-width="2.75" stroke-linecap="round" stroke-linejoin="round"/>
</g>
<defs>
<filter id="filter0_d" x="-4" y="0" width="52" height="52" filterUnits="userSpaceOnUse" color-interpolation-filters="sRGB">
<feFlood flood-opacity="0" result="BackgroundImageFix"/>
<feColorMatrix in="SourceAlpha" type="matrix" values="0 0 0 0 0 0 0 0 0 0 0 0 0 0 0 0 0 0 127 0"/>
<feOffset dy="4"/>
<feGaussianBlur stdDeviation="2"/>
<feColorMatrix type="matrix" values="0 0 0 0 0 0 0 0 0 0 0 0 0 0 0 0 0 0 0.25 0"/>
<feBlend mode="normal" in2="BackgroundImageFix" result="effect1_dropShadow"/>
<feBlend mode="normal" in="SourceGraphic" in2="effect1_dropShadow" result="shape"/>
</filter>
</defs>
</svg>
