<svg width="44" height="44" viewBox="0 0 44 44" fill="none" xmlns="http://www.w3.org/2000/svg">
<path d="M18.3333 25.6667L38.5 5.5" stroke="#272727" stroke-width="3.66667" stroke-linecap="round" stroke-linejoin="round"/>
<path d="M38.5 5.5L26.5833 38.5C26.5029 38.6755 26.3738 38.8243 26.2113 38.9285C26.0488 39.0328 25.8598 39.0883 25.6667 39.0883C25.4736 39.0883 25.2846 39.0328 25.1221 38.9285C24.9596 38.8243 24.8304 38.6755 24.75 38.5L18.3333 25.6667L5.50001 19.25C5.32448 19.1696 5.17574 19.0404 5.07146 18.8779C4.96718 18.7154 4.91174 18.5264 4.91174 18.3333C4.91174 18.1403 4.96718 17.9512 5.07146 17.7887C5.17574 17.6262 5.32448 17.4971 5.50001 17.4167L38.5 5.5Z" stroke="#272727" stroke-width="3.66667" stroke-linecap="round" stroke-linejoin="round"/>
</svg>
