<svg width="44" height="47" viewBox="0 0 44 47" fill="none" xmlns="http://www.w3.org/2000/svg">
<g filter="url(#filter0_d)">
<path d="M34.8333 12.8333H9.16667C7.14162 12.8333 5.5 14.475 5.5 16.5V33C5.5 35.025 7.14162 36.6667 9.16667 36.6667H34.8333C36.8584 36.6667 38.5 35.025 38.5 33V16.5C38.5 14.475 36.8584 12.8333 34.8333 12.8333Z" stroke="#272727" stroke-width="2.75" stroke-linecap="round" stroke-linejoin="round"/>
<path d="M14.6667 12.8333V9.16667C14.6667 8.19421 15.053 7.26158 15.7406 6.57394C16.4282 5.88631 17.3609 5.5 18.3333 5.5H25.6667C26.6391 5.5 27.5718 5.88631 28.2594 6.57394C28.947 7.26158 29.3333 8.19421 29.3333 9.16667V12.8333" stroke="#272727" stroke-width="2.75" stroke-linecap="round" stroke-linejoin="round"/>
<path d="M22 22V22.0183" stroke="#272727" stroke-width="2.75" stroke-linecap="round" stroke-linejoin="round"/>
<path d="M5.5 23.8333C10.6179 26.4123 16.2691 27.7556 22 27.7556C27.7309 27.7556 33.3821 26.4123 38.5 23.8333" stroke="#272727" stroke-width="2.75" stroke-linecap="round" stroke-linejoin="round"/>
</g>
<defs>
<filter id="filter0_d" x="-4" y="0" width="52" height="52" filterUnits="userSpaceOnUse" color-interpolation-filters="sRGB">
<feFlood flood-opacity="0" result="BackgroundImageFix"/>
<feColorMatrix in="SourceAlpha" type="matrix" values="0 0 0 0 0 0 0 0 0 0 0 0 0 0 0 0 0 0 127 0"/>
<feOffset dy="4"/>
<feGaussianBlur stdDeviation="2"/>
<feColorMatrix type="matrix" values="0 0 0 0 0 0 0 0 0 0 0 0 0 0 0 0 0 0 0.25 0"/>
<feBlend mode="normal" in2="BackgroundImageFix" result="effect1_dropShadow"/>
<feBlend mode="normal" in="SourceGraphic" in2="effect1_dropShadow" result="shape"/>
</filter>
</defs>
</svg>
